<svg width="512" height="512" viewBox="0 0 512 512" fill="none" xmlns="http://www.w3.org/2000/svg">
<rect width="512" height="512" rx="38" fill="#F6F6F4"/>
<path d="M256 134.5V377.5M195.25 320.436L213.05 333.78C236.762 351.58 275.217 351.58 298.95 333.78C322.683 315.98 322.683 287.145 298.95 269.345C287.104 260.435 271.552 256 256 256C241.319 256 226.637 251.545 215.439 242.655C193.043 224.855 193.043 196.02 215.439 178.22C237.836 160.42 274.164 160.42 296.561 178.22L304.965 184.902M438.25 256C438.25 279.933 433.536 303.632 424.377 325.744C415.218 347.856 401.794 367.947 384.87 384.87C367.947 401.794 347.856 415.218 325.744 424.377C303.632 433.536 279.933 438.25 256 438.25C232.067 438.25 208.368 433.536 186.256 424.377C164.144 415.218 144.053 401.794 127.13 384.87C110.206 367.947 96.7819 347.856 87.623 325.744C78.464 303.632 73.75 279.933 73.75 256C73.75 207.664 92.9513 161.308 127.13 127.13C161.308 92.9513 207.664 73.75 256 73.75C304.336 73.75 350.692 92.9513 384.87 127.13C419.049 161.308 438.25 207.664 438.25 256Z" stroke="#5A5C5B" stroke-width="30.375" stroke-linecap="round" stroke-linejoin="round"/>
</svg>
